<?xml version="1.0" standalone="no"?>
<!DOCTYPE svg PUBLIC "-//W3C//DTD SVG 20010904//EN"
 "http://www.w3.org/TR/2001/REC-SVG-20010904/DTD/svg10.dtd">
<svg version="1.0" xmlns="http://www.w3.org/2000/svg"
 width="1096.000000pt" height="1096.000000pt" viewBox="0 0 1096.000000 1096.000000"
 preserveAspectRatio="xMidYMid meet">
<metadata>
Created by potrace 1.14, written by Peter Selinger 2001-2017
</metadata>
<g transform="translate(0.000000,1096.000000) scale(0.100000,-0.100000)"
fill="#000000" stroke="none">
<path d="M5982 10940 c-70 -19 -193 -76 -397 -185 -49 -26 -103 -55 -120 -63
-16 -8 -38 -22 -47 -30 -10 -8 -18 -12 -18 -8 0 4 -6 2 -12 -4 -21 -18 -216
-130 -227 -130 -5 0 -11 -3 -13 -8 -1 -4 -39 -30 -83 -57 -44 -27 -138 -87
-208 -134 -70 -47 -136 -90 -145 -96 -9 -5 -21 -14 -26 -18 -6 -4 -65 -47
-131 -95 -106 -76 -317 -237 -352 -267 -7 -5 -18 -15 -25 -20 -61 -48 -204
-170 -206 -177 -2 -4 -10 -8 -18 -8 -8 0 -14 -7 -14 -15 0 -8 -6 -15 -14 -15
-8 0 -16 -3 -18 -7 -1 -5 -43 -44 -92 -88 -202 -181 -492 -470 -651 -650 -38
-43 -81 -91 -95 -106 -28 -31 -39 -43 -95 -114 -22 -27 -42 -52 -45 -55 -3 -3
-25 -30 -50 -60 -25 -30 -47 -57 -50 -60 -3 -3 -9 -12 -15 -21 -5 -9 -30 -42
-55 -74 -25 -32 -49 -65 -55 -73 -14 -21 -37 -51 -52 -67 -7 -8 -13 -16 -13
-20 0 -3 -5 -11 -10 -18 -53 -62 -273 -390 -356 -527 -21 -36 -41 -67 -44 -70
-10 -10 -41 -65 -47 -82 -3 -10 -9 -18 -14 -18 -5 0 -9 -5 -9 -10 0 -6 -25
-54 -56 -108 -92 -159 -273 -524 -340 -687 -14 -33 -31 -73 -39 -90 -56 -126
-152 -396 -221 -620 -29 -93 -30 -96 -38 -130 -2 -11 -16 -65 -31 -120 -14
-55 -28 -111 -31 -124 -3 -12 -11 -51 -19 -85 -8 -33 -23 -108 -34 -166 -24
-125 -29 -153 -46 -270 -4 -25 -8 -56 -10 -70 -2 -14 -7 -50 -10 -80 -3 -30
-8 -73 -11 -95 -22 -181 -29 -338 -29 -640 1 -283 6 -443 19 -565 3 -25 8 -72
11 -105 3 -33 7 -73 9 -90 2 -16 7 -57 11 -90 4 -32 9 -68 11 -80 3 -11 7 -40
10 -65 3 -25 12 -83 21 -130 8 -47 17 -96 20 -110 17 -96 44 -223 48 -230 3
-4 7 -25 10 -46 4 -22 13 -64 22 -94 8 -30 17 -63 19 -74 2 -10 11 -44 20 -75
9 -31 18 -63 19 -71 2 -8 13 -44 25 -80 12 -36 23 -72 25 -80 4 -18 68 -191
86 -235 7 -16 13 -32 14 -35 10 -30 53 -126 98 -220 22 -47 41 -88 41 -92 1
-3 4 -9 8 -13 4 -4 19 -32 34 -63 15 -32 30 -59 33 -62 3 -3 17 -25 30 -50 32
-58 166 -264 186 -283 8 -9 15 -19 15 -24 0 -4 14 -24 30 -43 16 -19 33 -39
37 -45 68 -89 352 -389 361 -380 2 1 15 -9 30 -24 51 -48 92 -81 102 -81 5 0
10 -3 10 -8 0 -4 18 -18 40 -32 22 -14 40 -28 40 -32 0 -5 4 -8 9 -8 9 0 99
-57 111 -69 3 -4 25 -16 50 -29 25 -13 86 -45 137 -71 51 -27 95 -46 98 -43 3
3 5 1 5 -5 0 -5 6 -10 13 -10 6 -1 39 -13 72 -27 33 -14 67 -26 77 -26 9 0 18
-4 20 -10 1 -5 15 -11 31 -12 15 -1 27 -5 27 -9 0 -4 12 -9 28 -12 15 -2 63
-14 107 -26 44 -13 91 -24 105 -27 14 -2 48 -9 75 -14 28 -5 68 -12 90 -16 22
-3 51 -7 65 -9 146 -25 531 -25 755 -1 54 6 188 26 220 33 11 2 31 6 45 8 14
2 36 7 50 10 14 3 36 8 50 10 133 22 426 111 505 153 16 9 32 16 35 17 11 1
157 79 182 96 14 11 31 19 37 19 6 0 11 4 11 8 0 5 10 13 23 19 19 9 77 51
181 132 82 64 283 279 333 357 7 10 29 41 48 69 19 27 31 51 25 53 -23 8 -154
-46 -260 -108 -36 -21 -81 -46 -100 -57 -76 -42 -301 -126 -371 -138 -18 -3
-36 -8 -39 -10 -4 -3 -25 -7 -46 -10 -22 -3 -45 -8 -52 -10 -30 -11 -167 -19
-297 -19 -150 0 -216 6 -330 29 -11 2 -33 7 -50 10 -52 10 -230 66 -240 76 -5
5 -15 9 -23 9 -16 0 -179 79 -237 115 -22 14 -47 28 -55 32 -24 11 -108 73
-185 138 -100 83 -257 252 -286 306 -6 13 -15 26 -18 29 -13 10 -80 118 -118
190 -37 72 -99 220 -119 285 -27 88 -51 196 -60 265 -2 19 -6 46 -9 60 -2 14
-7 54 -10 90 -3 36 -9 83 -12 105 -12 85 -17 388 -9 510 8 109 16 210 20 235
2 14 7 49 11 79 3 30 9 63 11 75 2 12 7 37 10 56 3 19 12 62 21 95 8 33 17 71
19 85 3 14 10 43 16 65 6 22 12 45 14 50 2 13 64 206 71 225 3 8 7 20 9 25 3
12 59 148 75 185 7 14 17 36 23 50 6 14 14 27 17 30 4 3 9 14 11 25 1 11 5 22
8 25 3 3 18 30 33 60 15 30 43 82 62 115 19 33 40 71 47 85 7 14 21 34 30 44
10 11 18 26 18 33 0 7 5 13 10 13 6 0 10 5 10 12 0 6 11 26 25 43 13 18 21 35
18 39 -4 3 -2 6 3 6 5 0 18 15 29 32 48 82 284 396 374 498 111 125 160 177
256 274 61 61 144 140 185 176 41 36 83 74 95 85 17 16 96 80 170 138 6 4 24
19 40 32 17 14 55 42 85 63 30 20 66 47 80 60 14 12 31 22 38 22 7 0 15 7 18
15 4 8 10 15 15 15 10 0 90 50 99 61 3 3 19 14 35 23 17 9 44 25 60 36 17 11
37 23 45 27 8 3 26 14 40 23 58 39 289 160 305 160 8 0 15 4 17 8 5 14 348
166 348 155 0 -4 9 2 20 12 11 10 23 15 27 12 3 -4 11 -3 17 1 9 7 102 45 116
47 3 1 61 20 130 42 98 32 303 91 375 108 6 1 17 5 25 8 20 7 88 28 103 31 7
2 25 8 40 14 16 7 30 12 32 12 2 0 16 5 32 12 15 6 30 12 33 13 81 28 382 190
427 230 6 5 28 21 48 35 109 74 305 252 405 366 56 64 160 203 201 269 24 39
46 72 49 75 3 3 16 28 30 55 14 28 27 52 30 55 19 19 129 276 145 340 1 3 5
13 9 22 12 27 3 51 -24 65 -24 13 -185 13 -206 0 -5 -3 -25 -8 -44 -11 -50 -8
-335 -83 -475 -125 -80 -25 -75 -23 -135 -41 -25 -7 -49 -14 -55 -16 -5 -1
-64 -21 -130 -44 -66 -23 -124 -42 -130 -43 -5 -2 -23 -8 -40 -14 -16 -6 -55
-20 -85 -31 -110 -40 -326 -125 -377 -148 -28 -13 -54 -24 -57 -24 -2 0 -26
-10 -53 -22 -26 -12 -50 -22 -53 -23 -16 -5 -96 -40 -127 -56 -21 -11 -43 -19
-50 -19 -7 0 -13 -4 -13 -10 0 -5 -6 -10 -14 -10 -32 0 -725 -361 -734 -382
-2 -4 -8 -8 -13 -8 -4 0 -43 -20 -85 -45 -41 -25 -80 -45 -85 -45 -5 0 -9 -4
-9 -8 0 -5 -11 -14 -25 -20 -30 -14 -244 -151 -255 -163 -3 -3 -24 -16 -47
-29 -24 -13 -43 -27 -43 -31 0 -4 -9 -11 -20 -14 -11 -3 -26 -12 -32 -19 -7
-6 -65 -50 -128 -96 -63 -46 -117 -87 -120 -90 -3 -3 -48 -39 -100 -81 -53
-42 -102 -83 -110 -90 -8 -8 -42 -37 -75 -64 -33 -27 -70 -60 -82 -72 -12 -13
-27 -23 -33 -23 -6 0 -8 -4 -5 -10 3 -5 1 -10 -5 -10 -12 0 -403 -388 -449
-445 -27 -33 -133 -157 -141 -165 -3 -3 -21 -25 -40 -50 -19 -25 -37 -47 -40
-50 -14 -12 -172 -233 -226 -315 -72 -110 -69 -106 -144 -235 -34 -58 -68
-116 -76 -130 -15 -26 -127 -251 -129 -260 -1 -3 -11 -27 -24 -55 -55 -121
-74 -170 -71 -181 1 -4 -2 -10 -7 -13 -5 -3 -19 -37 -32 -76 -12 -38 -27 -79
-31 -90 -11 -25 -71 -214 -76 -239 -2 -10 -10 -42 -19 -71 -17 -60 -65 -268
-69 -305 -2 -14 -6 -38 -9 -55 -4 -16 -9 -43 -11 -60 -3 -16 -8 -46 -12 -65
-3 -19 -7 -46 -9 -60 -8 -73 -16 -138 -21 -160 -6 -35 -13 -83 -21 -165 -9
-84 -9 -501 1 -565 3 -25 8 -64 10 -86 2 -23 5 -46 8 -50 2 -5 5 -25 7 -44 2
-19 7 -40 12 -46 5 -6 6 -13 3 -16 -3 -3 2 -34 11 -69 8 -35 18 -77 21 -92 3
-15 17 -65 30 -110 14 -45 27 -86 28 -92 2 -5 6 -17 9 -25 3 -8 18 -45 31 -83
14 -37 33 -84 42 -105 51 -113 110 -231 149 -297 25 -42 45 -78 45 -80 0 -18
229 -324 278 -371 12 -12 22 -24 22 -27 0 -6 180 -186 242 -242 51 -47 174
-145 182 -145 4 0 16 -9 28 -20 12 -11 34 -25 49 -32 15 -7 25 -16 23 -20 -3
-5 -9 -6 -14 -3 -4 2 -25 7 -46 10 -22 4 -61 13 -89 22 -61 19 -304 141 -350
176 -5 4 -39 26 -75 49 -36 23 -70 46 -76 52 -6 6 -25 22 -43 36 -84 64 -193
169 -276 265 -33 39 -62 72 -65 75 -3 3 -9 12 -15 21 -5 8 -41 63 -80 121 -68
104 -108 168 -109 178 -1 3 -20 43 -42 90 -23 47 -56 126 -74 175 -18 50 -36
99 -41 110 -11 27 -68 232 -75 270 -2 17 -7 37 -9 45 -2 8 -6 26 -9 40 -5 30
-24 136 -30 165 -15 79 -32 244 -43 415 -13 205 -6 691 11 780 2 14 7 57 10
95 4 39 8 81 10 95 3 14 7 43 10 65 3 22 8 51 11 65 2 14 7 41 9 60 3 19 10
58 15 85 6 28 13 61 15 75 3 14 5 26 7 28 3 4 5 14 13 65 5 26 12 50 17 53 5
3 7 9 4 13 -2 5 7 48 21 97 14 49 27 96 29 104 2 8 10 34 19 58 8 23 15 43 15
45 0 4 8 29 26 79 9 26 17 51 17 55 1 5 14 38 29 75 15 36 25 69 21 72 -3 3 0
6 7 6 7 0 10 4 6 9 -3 5 -1 12 4 15 5 3 12 17 15 31 13 52 217 470 258 528 11
15 16 27 11 27 -4 0 -3 4 2 8 6 4 24 30 40 57 63 111 206 327 223 338 6 4 12
12 12 17 0 6 6 18 14 27 8 10 45 59 82 108 122 163 261 326 435 509 142 149
244 247 388 374 35 32 69 62 75 67 21 20 152 130 196 165 24 19 49 41 56 48 7
6 17 12 23 12 6 0 11 4 11 8 0 5 30 30 68 57 37 27 69 52 72 56 3 3 50 38 105
77 55 40 105 75 110 80 32 24 261 172 353 227 59 36 112 69 118 74 7 6 27 17
45 25 19 9 66 34 104 56 39 22 144 77 235 122 91 46 168 87 171 91 3 5 8 8 10
7 5 -2 42 13 119 48 36 16 85 38 110 49 25 12 81 35 125 53 44 18 100 41 124
52 25 11 52 21 61 23 9 2 43 14 76 28 32 13 77 30 99 37 22 7 45 15 50 19 6 3
15 6 20 8 6 1 84 27 175 58 91 31 172 58 180 60 8 2 76 22 150 45 74 22 142
42 150 45 8 2 103 27 210 55 107 28 204 53 215 55 11 2 52 11 90 21 39 9 97
22 130 29 33 7 71 16 85 19 14 3 36 8 50 11 14 3 36 7 50 10 14 3 39 8 55 11
17 3 50 10 75 15 25 6 56 12 70 14 194 30 312 58 380 92 70 34 190 104 217
128 7 5 18 15 25 20 107 82 183 155 246 235 20 25 41 50 47 55 19 18 117 176
141 229 19 43 22 58 14 85 -5 18 -17 40 -27 48 -19 15 -318 164 -337 167 -6 1
-20 7 -31 12 -24 13 -196 73 -228 80 -12 3 -33 7 -46 10 -13 3 -31 9 -40 13
-9 5 -19 9 -24 9 -7 0 -75 10 -127 19 -14 2 -81 6 -148 7 -118 3 -216 -8 -313
-34 -24 -7 -52 -14 -61 -16 -10 -2 -26 -6 -35 -8 -10 -2 -79 -21 -153 -41 -74
-20 -142 -38 -150 -40 -8 -2 -15 -4 -15 -5 0 -1 -7 -3 -15 -5 -25 -5 -133 -37
-155 -46 -29 -12 -109 -33 -117 -31 -5 1 -8 -3 -8 -10 0 -6 -3 -9 -6 -6 -6 6
-354 -111 -393 -131 -11 -7 -21 -9 -21 -5 0 3 -7 1 -15 -6 -8 -7 -15 -9 -15
-5 0 4 -6 3 -12 -2 -11 -8 -98 -44 -118 -49 -3 0 -18 -6 -35 -13 -16 -7 -46
-19 -66 -26 -19 -7 -55 -21 -80 -32 -98 -43 -134 -58 -139 -59 -3 0 -32 -14
-65 -29 -33 -16 -64 -29 -70 -31 -25 -6 -84 -35 -90 -44 -3 -5 -13 -10 -21
-10 -14 0 -360 -170 -519 -254 -123 -66 -359 -199 -375 -211 -8 -7 -35 -23
-60 -36 -25 -13 -47 -27 -50 -30 -3 -3 -21 -14 -40 -25 -19 -10 -37 -22 -40
-25 -3 -3 -39 -25 -80 -50 -41 -24 -77 -46 -80 -49 -3 -3 -66 -45 -140 -95
-180 -119 -396 -274 -442 -317 -10 -10 -21 -18 -24 -18 -5 0 -120 -91 -170
-135 -7 -5 -33 -28 -59 -50 -27 -22 -60 -50 -74 -62 -14 -13 -31 -27 -36 -31
-22 -18 -123 -108 -204 -181 -95 -86 -413 -402 -480 -477 -24 -27 -68 -76 -97
-109 -93 -104 -232 -275 -330 -405 -104 -139 -105 -140 -119 -162 -5 -8 -43
-63 -82 -121 -40 -59 -73 -108 -73 -111 0 -3 -18 -32 -40 -65 -22 -33 -40 -65
-40 -71 0 -5 -4 -10 -10 -10 -5 0 -10 -6 -10 -14 0 -8 -6 -21 -12 -28 -19 -21
-64 -101 -165 -298 -74 -145 -134 -275 -184 -404 -22 -56 -44 -110 -49 -121
-38 -83 -173 -524 -185 -605 -2 -14 -4 -26 -6 -27 -1 -2 -3 -7 -4 -13 -1 -5
-3 -11 -5 -12 -1 -2 -3 -12 -5 -23 -1 -11 -5 -31 -8 -45 -3 -14 -9 -36 -12
-50 -8 -37 -44 -239 -50 -285 -3 -22 -8 -51 -10 -65 -7 -39 -14 -90 -20 -155
-4 -33 -8 -78 -10 -100 -28 -280 -27 -788 1 -1085 3 -25 7 -67 9 -95 2 -27 6
-63 9 -80 2 -16 7 -55 11 -85 7 -65 11 -87 25 -160 6 -30 13 -71 16 -90 3 -19
12 -62 20 -95 8 -33 17 -71 20 -83 4 -23 19 -79 44 -167 20 -69 82 -249 96
-278 8 -15 12 -27 10 -27 -7 0 110 -254 156 -340 61 -112 62 -113 73 -125 6
-6 19 -28 30 -48 11 -20 23 -37 27 -37 5 0 8 -5 8 -11 0 -6 12 -27 27 -47 27
-36 34 -45 61 -76 6 -8 12 -20 12 -25 0 -5 8 -16 18 -23 11 -7 21 -18 23 -24
6 -17 123 -146 198 -219 81 -78 110 -104 181 -158 30 -23 57 -44 60 -47 3 -3
12 -9 21 -15 9 -5 42 -28 75 -50 78 -53 76 -51 204 -118 96 -50 310 -141 359
-152 9 -2 57 -16 106 -30 94 -26 96 -27 185 -45 73 -14 133 -24 220 -35 69 -9
248 -19 357 -19 67 0 121 -2 119 -3 -1 -1 -20 -5 -42 -8 -21 -4 -50 -8 -64
-11 -156 -27 -497 -26 -635 2 -11 2 -33 7 -50 9 -40 7 -135 25 -160 31 -11 2
-31 6 -44 9 -53 10 -219 55 -261 70 -25 9 -52 18 -60 20 -63 15 -206 75 -350
148 -291 148 -549 363 -775 647 -33 41 -62 77 -65 80 -3 3 -23 32 -45 65 -22
33 -43 62 -47 63 -5 2 -8 10 -8 17 0 8 -7 20 -15 28 -12 13 -145 243 -145 252
0 2 -18 42 -40 89 -91 195 -165 425 -206 646 -3 14 -9 41 -14 61 -11 39 -29
127 -36 174 -3 17 -9 53 -14 80 -5 28 -12 65 -15 83 -3 17 -7 44 -10 60 -8 46
-25 190 -30 252 -2 25 -6 54 -9 66 -11 52 -20 291 -19 544 0 304 6 447 29 625
3 28 7 66 9 85 3 33 11 86 20 140 2 14 7 43 10 65 3 23 8 52 10 65 3 14 8 40
11 59 3 18 8 43 11 55 2 11 6 32 8 46 2 14 4 27 5 30 1 3 2 8 1 12 0 3 6 28
14 55 7 26 16 62 19 78 2 17 12 57 21 90 9 33 18 69 21 80 2 11 15 58 29 105
14 47 28 96 31 109 3 13 9 32 15 43 5 10 7 18 3 18 -3 0 -1 7 6 15 7 8 9 15 6
15 -4 0 -1 10 6 23 6 12 13 30 15 39 1 9 21 66 44 125 22 59 42 113 43 118 4
14 15 42 37 92 11 23 19 44 19 47 0 5 19 48 78 176 119 259 285 561 423 768
146 217 259 381 277 400 6 7 12 17 12 21 0 4 8 16 18 27 9 11 57 73 107 139
49 66 94 125 100 131 5 6 25 29 43 52 37 45 52 63 115 136 69 80 76 88 150
169 101 110 321 330 424 423 48 43 97 88 109 99 25 23 46 41 129 110 33 28 62
52 65 55 25 27 332 259 455 345 39 27 72 52 75 55 3 4 16 13 29 20 14 7 30 17
35 22 14 11 137 90 257 164 52 32 104 64 115 71 10 7 48 29 84 50 36 21 79 45
95 55 17 10 46 25 65 35 19 9 37 19 40 22 3 4 28 17 55 31 28 14 58 31 68 39
9 8 17 10 17 5 0 -5 4 -4 8 1 4 6 97 55 207 109 110 54 218 107 240 119 22 12
41 20 42 19 2 -1 37 14 79 33 41 19 77 35 79 35 2 0 34 14 72 31 37 16 77 34
88 39 11 5 115 46 230 91 116 45 219 85 230 90 28 12 217 79 235 84 8 2 56 18
105 35 50 18 95 33 100 35 6 1 17 5 25 8 8 3 44 15 80 27 36 11 76 26 90 32
24 11 110 96 110 109 0 5 -71 29 -160 54 -3 1 -25 8 -50 15 -25 7 -47 14 -50
15 -3 1 -32 10 -65 20 -33 11 -63 20 -67 21 -5 1 -10 3 -13 4 -3 1 -8 3 -12 4
-5 1 -40 12 -78 24 -39 12 -79 24 -90 26 -11 3 -47 14 -80 26 -33 11 -62 21
-65 20 -3 0 -26 7 -51 15 -25 9 -54 17 -65 20 -10 2 -48 13 -84 25 -36 12 -69
23 -75 24 -5 1 -32 9 -60 18 -93 31 -283 89 -306 94 -69 16 -216 12 -287 -6z"/>
<path d="M5960 5520 c0 -3 -12 -6 -26 -5 -16 0 -28 -6 -30 -15 -2 -8 -6 -28
-9 -45 -7 -33 -33 -166 -41 -205 -3 -14 -7 -32 -9 -40 -2 -8 -7 -31 -10 -50
-4 -29 -10 -56 -20 -100 -1 -3 -5 -25 -9 -50 -5 -25 -10 -54 -13 -65 -2 -11
-6 -31 -9 -45 -3 -14 -9 -44 -15 -68 -5 -24 -7 -48 -4 -53 4 -5 1 -9 -6 -9 -7
0 -10 -2 -7 -5 3 -4 1 -25 -4 -48 -5 -23 -11 -51 -14 -62 -9 -44 -24 -122 -29
-147 -11 -62 -16 -84 -20 -98 -2 -8 -7 -31 -10 -50 -3 -19 -10 -54 -16 -78 -5
-23 -12 -59 -15 -80 -3 -20 -7 -45 -10 -54 -3 -10 -7 -30 -10 -45 -5 -34 -18
-94 -24 -110 -1 -5 -2 -12 -1 -16 1 -5 -3 -25 -8 -45 -6 -20 -13 -53 -16 -72
-3 -19 -8 -42 -11 -51 -2 -10 -7 -30 -9 -45 -2 -16 -25 -130 -50 -254 -26
-124 -48 -236 -50 -250 -2 -14 -4 -25 -5 -25 -2 0 -14 -61 -25 -125 -1 -8 -5
-26 -8 -40 -7 -24 -13 -55 -23 -115 -3 -16 -12 -56 -19 -87 -7 -31 -10 -59 -7
-62 3 -3 0 -6 -7 -6 -7 0 -10 -4 -7 -9 4 -5 -1 -40 -9 -78 -16 -73 -22 -100
-30 -148 -3 -16 -7 -40 -10 -52 -3 -13 -7 -33 -10 -45 -5 -26 -24 -119 -31
-158 -2 -14 -9 -45 -14 -70 -10 -42 -13 -59 -25 -120 -8 -43 -14 -74 -20 -100
-3 -14 -7 -36 -10 -50 -3 -14 -7 -36 -10 -50 -3 -14 -7 -36 -10 -50 -3 -14 -7
-37 -10 -51 l-6 -26 1023 2 c563 1 1023 3 1023 4 0 1 25 4 55 6 102 8 149 13
245 30 17 3 44 8 60 10 34 6 68 13 75 15 3 1 8 2 12 1 18 -2 297 85 365 115
17 8 33 14 36 14 8 0 161 73 167 80 3 3 23 13 44 23 60 28 222 137 311 210
108 88 285 264 285 283 0 3 11 16 25 30 14 14 25 28 25 33 0 4 8 16 18 27 20
22 80 113 108 164 10 19 21 37 24 40 5 5 62 119 65 130 1 3 7 18 13 33 7 16
12 33 12 38 0 5 4 9 8 9 5 0 9 6 10 13 0 6 16 57 36 112 19 55 37 112 40 125
2 14 14 66 24 115 11 50 22 113 26 140 3 28 8 68 11 90 3 22 7 72 9 111 2 40
6 77 10 82 3 6 3 13 -2 16 -5 3 -7 22 -4 43 5 49 5 44 -2 143 -32 490 -251
876 -641 1132 -192 126 -560 260 -742 271 -18 1 -33 4 -33 8 0 3 -10 5 -22 5
-13 0 -52 4 -88 8 -36 4 -111 9 -168 11 -57 3 -107 7 -112 10 -6 4 -10 2 -10
-4 0 -6 -11 -6 -30 -1 -17 5 -30 5 -30 0 0 -5 -13 -5 -30 0 -16 5 -32 5 -35 0
-3 -5 -19 -5 -35 0 -17 5 -30 5 -30 0 0 -5 -13 -5 -30 0 -17 5 -30 5 -30 0 0
-5 -13 -5 -30 0 -17 5 -32 5 -35 0 -3 -5 -16 -5 -30 0 -15 6 -27 6 -30 -1 -4
-5 -11 -6 -17 -3 -14 9 -103 9 -117 0 -6 -4 -11 -3 -11 2 0 6 -14 7 -35 2 -19
-4 -35 -5 -35 -1 0 3 -34 6 -75 6 -41 0 -75 -2 -75 -5 0 -3 -21 -4 -47 -2 -27
1 -54 3 -60 2 -7 0 -20 0 -28 0 -8 0 -22 0 -30 0 -8 0 -22 0 -30 0 -8 0 -22 0
-30 0 -8 0 -22 0 -30 0 -8 0 -22 0 -30 0 -8 0 -22 0 -30 0 -8 0 -22 0 -30 0
-8 0 -22 0 -30 0 -8 0 -22 0 -30 0 -8 0 -22 0 -30 0 -8 0 -22 0 -30 0 -8 0
-22 0 -30 0 -8 0 -22 0 -30 0 -8 0 -22 0 -30 0 -8 0 -22 0 -30 0 -8 0 -21 0
-27 0 -7 -1 -52 0 -101 2 -48 2 -87 1 -87 -2z m1480 -711 c74 -1 139 -5 144
-7 6 -3 24 -6 41 -8 56 -3 118 -16 200 -40 81 -24 217 -83 223 -96 2 -5 8 -8
14 -8 5 0 22 -9 36 -20 63 -48 96 -76 111 -94 9 -10 31 -33 49 -52 17 -19 32
-39 32 -44 0 -6 5 -10 11 -10 5 0 7 -4 4 -10 -3 -5 -2 -10 3 -10 11 0 83 -146
85 -172 1 -10 5 -18 9 -18 4 0 7 -3 6 -7 -1 -5 1 -21 5 -38 14 -58 18 -81 24
-140 7 -78 10 -217 4 -230 -3 -5 -6 -30 -7 -55 -2 -42 -6 -71 -19 -142 -13
-71 -22 -113 -25 -113 -1 0 -3 -8 -5 -17 -4 -22 -24 -88 -35 -113 -4 -11 -20
-49 -35 -85 -28 -68 -103 -200 -139 -244 -11 -14 -32 -40 -46 -58 -44 -56
-143 -149 -215 -202 -62 -46 -189 -126 -201 -126 -2 0 -28 -11 -56 -25 -29
-14 -66 -29 -83 -34 -107 -33 -178 -51 -230 -60 -33 -5 -76 -13 -95 -17 -50
-10 -1068 -16 -1074 -6 -2 4 2 34 10 67 7 33 16 74 19 90 2 17 7 41 10 55 10
50 15 76 19 100 3 14 8 36 11 50 3 14 8 39 10 55 3 17 8 37 10 45 2 8 7 30 10
48 3 18 12 65 21 105 9 39 18 86 20 102 2 17 11 62 19 100 9 39 18 81 20 95 2
14 4 25 5 25 2 0 9 34 14 70 3 17 5 30 6 30 2 0 5 13 14 63 3 17 9 47 12 65 9
49 12 62 14 62 1 0 3 13 5 28 2 15 15 83 29 150 14 67 28 133 30 147 2 14 9
45 15 70 11 49 18 87 27 140 3 19 8 38 10 41 2 4 6 27 9 50 3 24 8 53 12 64 3
11 7 29 9 40 2 11 5 31 8 45 17 75 29 137 32 155 3 18 8 43 19 95 2 8 4 23 4
32 1 11 11 18 34 20 33 3 541 1 777 -3z"/>
</g>
</svg>
