<svg width="448" height="416" viewBox="0 0 448 416" fill="none" xmlns="http://www.w3.org/2000/svg">
<path d="M331 128L214 416H261.24L285.73 358H376.27L400.76 416H448L331 128ZM304.31 314L331 231.85L357.69 314H304.31Z" fill="#EE9636"/>
<path d="M240 272C239.75 271.81 219.41 256.23 194.58 229.33C234.16 175.69 256.58 114.72 265.73 86H320V42H182V0H138V42H0V86H219.25C209.73 112.95 192.2 155.5 165.46 194.36C132.78 150.92 118.32 118.48 118.13 118.14L111 104L73 126L79.87 139.86C80.76 141.42 97.06 177.76 134.58 226.43C135.5 227.64 136.43 228.82 137.36 230C87.64 286.86 48.21 309.09 47.7 309.47L32 320L55 356L74.3 344.53C76.5 342.86 115.63 320.53 166.3 263.75C190.82 290.03 209.52 304.58 210.6 305.42L223 314L240 272Z" fill="black"/>
</svg>
