<svg width="368" height="140" viewBox="0 0 368 140" fill="none" xmlns="http://www.w3.org/2000/svg">
<path d="M37.3958 131.939C33.9216 129.7 33.8207 129.196 32.1995 127.782C28.0197 123.695 24.8941 118.655 23.0912 113.094C21.2883 107.533 20.8618 101.618 21.8484 95.856C24.2179 75.4032 35.8993 60.7704 52.195 49.38C63.6304 41.751 76.2829 36.1277 89.6085 32.7517C91.3961 32.2529 95.2799 31.4004 94.7633 32.9596C93.7834 35.917 93.7834 35.6579 93.0589 37.1167C91.1088 41.0431 88.3234 44.4954 84.898 47.2314C81.4725 49.9675 77.49 51.921 73.2297 52.9551C57.2346 57.0189 43.4547 67.1599 34.8184 81.2231C29.2851 89.8514 26.9875 100.161 28.3334 110.323C28.6086 114.153 29.8657 117.849 31.9836 121.053C34.1015 124.257 37.0089 126.861 40.4255 128.616C43.8422 130.37 47.6531 131.215 51.491 131.069C55.329 130.923 59.0647 129.791 62.3382 127.782C63.3523 127.152 64.4611 126.689 65.6223 126.41C63.8786 129.26 61.5891 131.737 58.8853 133.698C56.1815 135.66 53.1167 137.069 49.867 137.842C22.2641 144.785 7.46495 127.117 2.51804 106.872C-4.54897 77.7728 3.64045 52.0405 22.3057 29.3845C32.3372 17.5524 44.6887 7.90317 58.5968 1.03334C59.5943 0.47307 60.6995 0.131425 61.8391 0.0310826C62.9787 -0.0692596 64.1266 0.074 65.2066 0.45135C70.7355 2.19732 76.3059 3.86014 81.8348 5.56454C80.8133 6.98387 80.3799 7.06108 79.4237 7.35208C55.1465 15.1674 34.0702 27.4723 19.8114 49.2137C13.7529 57.8026 9.59257 67.583 7.60712 77.9045C5.62167 88.2259 5.85663 98.8518 8.29636 109.075C9.76522 116.549 13.5742 123.36 19.172 128.525C24.7697 133.689 31.8658 135.94 39.4328 136.803C42.3023 136.929 44.2164 136.803 47.3905 136.185C49.6208 135.751 50.2848 135.762 51.491 135.188C52.6973 134.614 53.8665 133.896 54.6476 132.812C48.8911 133.555 43.048 133.259 37.3958 131.939Z" fill="white"/>
<path d="M37.3958 131.939C43.1634 133.332 48.9889 133.454 54.8733 132.694C54.0921 133.777 53.0864 134.614 51.8802 135.188C50.6739 135.762 49.8848 136.089 48.3882 136.185C23.82 137.765 13.368 120.008 11.4142 102.59C7.88069 71.9112 21.8069 49.1305 45.3358 31.2136C59.1361 21.1168 74.8077 13.8674 91.4377 9.88782C96.9666 8.47442 102.763 10.9746 107.193 13.2966C107.751 13.5892 108.149 14.0449 108.024 14.8347C106.022 19.0916 102.511 22.4541 98.1721 24.2713C78.4676 27.6801 59.7608 33.7494 44.1303 46.5116C26.0471 61.0613 15.5297 79.7681 17.3588 103.505C18.3149 115.56 22.7214 126.119 34.9016 131.399C35.705 131.69 36.5439 131.872 37.3958 131.939Z" fill="#EE9636"/>
<path d="M58.9758 72.2332H73.0074C76.4235 72.2332 79.3607 72.8078 81.819 73.9572C84.3093 75.0746 86.2089 76.6869 87.5179 78.794C88.8588 80.9011 89.5292 83.3754 89.5292 86.2169C89.5292 90.1119 88.6512 93.5439 86.8953 96.5131C85.1393 99.4503 82.681 101.733 79.5203 103.361C76.3916 104.958 72.7679 105.756 68.6494 105.756H52.2713L58.9758 72.2332ZM68.8889 99.3864C71.5068 99.3864 73.7736 98.8437 75.6892 97.7582C77.6367 96.6408 79.1212 95.1243 80.1429 93.2087C81.1645 91.2612 81.6753 89.0743 81.6753 86.6479C81.6753 84.1257 80.8612 82.1622 79.233 80.7575C77.6047 79.3208 75.2422 78.6024 72.1454 78.6024H65.4887L61.3224 99.3864H68.8889Z" fill="white"/>
<path d="M105.006 78.4588L103.569 85.738H119.133L117.936 91.772H102.324L100.791 99.5301H119.085L117.792 105.756H91.8361L98.5406 72.2332H123.874L122.581 78.4588H105.006Z" fill="white"/>
<path d="M161.415 72.2332L154.71 105.756H148.341L135.842 84.7802L131.627 105.756H123.965L130.67 72.2332H137.087L149.586 93.2566L153.752 72.2332H161.415Z" fill="white"/>
<path d="M181.031 94.1186L178.732 105.756H170.974L173.321 93.7834L164.701 72.2332H172.459L178.445 87.1746L190.465 72.2332H198.463L181.031 94.1186Z" fill="white"/>
<path d="M205.988 106.33C203.338 106.33 200.8 105.979 198.373 105.277C195.947 104.574 193.999 103.681 192.531 102.595L195.691 96.6089C197.224 97.7263 198.948 98.5883 200.863 99.1949C202.779 99.8015 204.742 100.105 206.754 100.105C208.893 100.105 210.585 99.7536 211.83 99.0512C213.075 98.3488 213.698 97.391 213.698 96.1778C213.698 95.1881 213.203 94.4379 212.213 93.927C211.223 93.3843 209.643 92.8096 207.472 92.203C205.301 91.5645 203.529 90.9579 202.156 90.3832C200.784 89.7766 199.586 88.8827 198.565 87.7014C197.575 86.5202 197.08 84.9558 197.08 83.0083C197.08 80.7415 197.703 78.7461 198.948 77.0221C200.225 75.2981 202.013 73.9731 204.311 73.0473C206.642 72.1214 209.34 71.6585 212.405 71.6585C214.672 71.6585 216.811 71.9139 218.822 72.4247C220.833 72.9036 222.557 73.606 223.994 74.5318L221.073 80.4701C219.828 79.6081 218.423 78.9696 216.858 78.5546C215.294 78.1076 213.666 77.8841 211.974 77.8841C209.771 77.8841 208.031 78.2672 206.754 79.0334C205.477 79.7997 204.838 80.7894 204.838 82.0026C204.838 82.7369 205.11 83.3595 205.652 83.8703C206.195 84.3492 206.882 84.7482 207.712 85.0675C208.542 85.3548 209.707 85.706 211.208 86.1211C213.347 86.6957 215.103 87.2864 216.475 87.893C217.848 88.4677 219.013 89.3297 219.971 90.479C220.961 91.5964 221.456 93.081 221.456 94.9327C221.456 97.2314 220.817 99.2428 219.54 100.967C218.263 102.659 216.459 103.984 214.129 104.942C211.798 105.867 209.084 106.33 205.988 106.33Z" fill="white"/>
<path d="M238.011 78.4588L236.574 85.738H252.138L250.941 91.772H235.329L233.797 99.5301H252.09L250.797 105.756H224.841L231.546 72.2332H256.879L255.586 78.4588H238.011Z" fill="white"/>
<path d="M294.42 72.2332L287.715 105.756H281.346L268.847 84.7802L264.633 105.756H256.97L263.675 72.2332H270.092L282.591 93.2566L286.758 72.2332H294.42Z" fill="white"/>
<path d="M316.143 87.7493L327.78 105.756H319.065L310.444 92.634L305.033 97.423L303.357 105.756H295.647L302.351 72.2332H310.061L306.996 87.6056L324.38 72.2332H333.767L316.143 87.7493Z" fill="white"/>
<path d="M347.264 106.33C343.912 106.33 341.006 105.724 338.548 104.511C336.09 103.297 334.206 101.589 332.897 99.3864C331.588 97.1835 330.934 94.6454 330.934 91.772C330.934 87.9728 331.796 84.5567 333.52 81.5237C335.276 78.4588 337.718 76.0483 340.847 74.2924C344.007 72.5365 347.615 71.6585 351.67 71.6585C355.022 71.6585 357.927 72.2651 360.386 73.4783C362.844 74.6915 364.728 76.3995 366.037 78.6024C367.345 80.8054 368 83.3435 368 86.2169C368 90.0161 367.122 93.4482 365.366 96.5131C363.642 99.5461 361.2 101.941 358.039 103.696C354.91 105.452 351.319 106.33 347.264 106.33ZM347.934 99.7217C350.393 99.7217 352.548 99.131 354.399 97.9498C356.251 96.7685 357.672 95.1881 358.662 93.2087C359.651 91.2293 360.146 89.0423 360.146 86.6479C360.146 84.0938 359.348 82.0664 357.752 80.5659C356.155 79.0334 353.905 78.2672 350.999 78.2672C348.541 78.2672 346.386 78.8579 344.534 80.0391C342.682 81.2204 341.262 82.8007 340.272 84.7802C339.282 86.7596 338.787 88.9466 338.787 91.341C338.787 93.8951 339.586 95.9384 341.182 97.4709C342.778 98.9714 345.029 99.7217 347.934 99.7217Z" fill="white"/>
<path d="M84.1716 118.925H86.4483L84.856 126.859H89.7587L89.3815 128.703H82.2161L84.1716 118.925Z" fill="#EE9636"/>
<path d="M101.978 128.87C101 128.87 100.152 128.693 99.4355 128.34C98.7185 127.986 98.1691 127.488 97.7873 126.845C97.4055 126.202 97.2146 125.462 97.2146 124.624C97.2146 123.516 97.466 122.52 97.9689 121.635C98.481 120.741 99.1934 120.038 100.106 119.526C101.028 119.014 102.08 118.758 103.263 118.758C104.24 118.758 105.088 118.935 105.805 119.288C106.522 119.642 107.071 120.14 107.453 120.783C107.835 121.426 108.026 122.166 108.026 123.004C108.026 124.112 107.77 125.113 107.257 126.007C106.755 126.892 106.042 127.59 105.12 128.102C104.208 128.614 103.16 128.87 101.978 128.87ZM102.173 126.943C102.89 126.943 103.519 126.771 104.059 126.426C104.599 126.081 105.013 125.621 105.302 125.043C105.591 124.466 105.735 123.828 105.735 123.13C105.735 122.385 105.502 121.793 105.037 121.356C104.571 120.909 103.914 120.685 103.067 120.685C102.35 120.685 101.722 120.858 101.181 121.202C100.641 121.547 100.227 122.008 99.9383 122.585C99.6497 123.162 99.5053 123.8 99.5053 124.498C99.5053 125.243 99.7381 125.839 100.204 126.286C100.669 126.724 101.326 126.943 102.173 126.943Z" fill="#EE9636"/>
<path d="M122.744 123.66H124.811L124.001 127.683C123.508 128.065 122.935 128.358 122.283 128.563C121.631 128.768 120.956 128.87 120.258 128.87C119.28 128.87 118.428 128.693 117.702 128.34C116.975 127.986 116.412 127.488 116.012 126.845C115.621 126.202 115.425 125.462 115.425 124.624C115.425 123.516 115.681 122.515 116.193 121.621C116.705 120.727 117.427 120.029 118.358 119.526C119.289 119.014 120.36 118.758 121.571 118.758C122.502 118.758 123.308 118.902 123.987 119.191C124.676 119.479 125.23 119.903 125.649 120.462L124.029 121.775C123.703 121.393 123.335 121.118 122.926 120.951C122.516 120.774 122.032 120.685 121.473 120.685C120.728 120.685 120.072 120.853 119.504 121.188C118.936 121.514 118.493 121.966 118.177 122.543C117.869 123.12 117.716 123.767 117.716 124.484C117.716 125.239 117.958 125.839 118.442 126.286C118.936 126.724 119.639 126.943 120.551 126.943C121.129 126.943 121.669 126.826 122.171 126.594L122.744 123.66Z" fill="#EE9636"/>
<path d="M134.274 118.925H136.551L134.596 128.703H132.319L134.274 118.925Z" fill="#EE9636"/>
<path d="M146.735 128.87C145.962 128.87 145.222 128.768 144.514 128.563C143.807 128.358 143.239 128.097 142.81 127.781L143.732 126.035C144.179 126.361 144.682 126.612 145.241 126.789C145.799 126.966 146.372 127.055 146.959 127.055C147.583 127.055 148.076 126.952 148.439 126.747C148.802 126.542 148.984 126.263 148.984 125.909C148.984 125.621 148.84 125.402 148.551 125.253C148.262 125.094 147.801 124.927 147.168 124.75C146.535 124.564 146.018 124.387 145.618 124.219C145.217 124.042 144.868 123.781 144.57 123.437C144.282 123.092 144.137 122.636 144.137 122.068C144.137 121.407 144.319 120.825 144.682 120.322C145.054 119.819 145.576 119.433 146.246 119.163C146.926 118.893 147.713 118.758 148.607 118.758C149.268 118.758 149.892 118.832 150.479 118.981C151.065 119.121 151.568 119.326 151.987 119.596L151.135 121.328C150.772 121.076 150.362 120.89 149.906 120.769C149.45 120.639 148.975 120.573 148.481 120.573C147.839 120.573 147.331 120.685 146.959 120.909C146.586 121.132 146.4 121.421 146.4 121.775C146.4 121.989 146.479 122.17 146.637 122.319C146.796 122.459 146.996 122.576 147.238 122.669C147.48 122.752 147.82 122.855 148.258 122.976C148.882 123.144 149.394 123.316 149.794 123.493C150.195 123.66 150.534 123.912 150.814 124.247C151.102 124.573 151.247 125.006 151.247 125.546C151.247 126.216 151.061 126.803 150.688 127.306C150.316 127.799 149.79 128.186 149.11 128.465C148.43 128.735 147.639 128.87 146.735 128.87Z" fill="#EE9636"/>
<path d="M162.127 120.769H158.998L159.375 118.925H167.895L167.518 120.769H164.403L162.811 128.703H160.548L162.127 120.769Z" fill="#EE9636"/>
<path d="M175.538 118.925H177.815L175.859 128.703H173.583L175.538 118.925Z" fill="#EE9636"/>
<path d="M189.731 128.87C188.753 128.87 187.897 128.693 187.161 128.34C186.435 127.986 185.876 127.488 185.485 126.845C185.094 126.202 184.898 125.462 184.898 124.624C184.898 123.516 185.15 122.52 185.652 121.635C186.165 120.741 186.882 120.038 187.803 119.526C188.725 119.014 189.782 118.758 190.974 118.758C191.849 118.758 192.622 118.907 193.293 119.205C193.963 119.503 194.471 119.931 194.815 120.49L193.181 121.831C192.66 121.067 191.873 120.685 190.82 120.685C190.103 120.685 189.47 120.853 188.921 121.188C188.371 121.523 187.943 121.98 187.636 122.557C187.338 123.134 187.189 123.777 187.189 124.484C187.189 125.239 187.426 125.839 187.901 126.286C188.385 126.724 189.061 126.943 189.927 126.943C190.96 126.943 191.826 126.566 192.525 125.811L193.865 127.18C192.897 128.307 191.519 128.87 189.731 128.87Z" fill="#EE9636"/>
<path d="M204.586 128.87C203.813 128.87 203.073 128.768 202.365 128.563C201.658 128.358 201.09 128.097 200.661 127.781L201.583 126.035C202.03 126.361 202.533 126.612 203.092 126.789C203.65 126.966 204.223 127.055 204.81 127.055C205.434 127.055 205.927 126.952 206.29 126.747C206.653 126.542 206.835 126.263 206.835 125.909C206.835 125.621 206.691 125.402 206.402 125.253C206.113 125.094 205.652 124.927 205.019 124.75C204.386 124.564 203.869 124.387 203.469 124.219C203.068 124.042 202.719 123.781 202.421 123.437C202.133 123.092 201.988 122.636 201.988 122.068C201.988 121.407 202.17 120.825 202.533 120.322C202.905 119.819 203.427 119.433 204.097 119.163C204.777 118.893 205.564 118.758 206.458 118.758C207.119 118.758 207.743 118.832 208.33 118.981C208.916 119.121 209.419 119.326 209.838 119.596L208.986 121.328C208.623 121.076 208.213 120.89 207.757 120.769C207.301 120.639 206.826 120.573 206.332 120.573C205.69 120.573 205.182 120.685 204.81 120.909C204.437 121.132 204.251 121.421 204.251 121.775C204.251 121.989 204.33 122.17 204.488 122.319C204.647 122.459 204.847 122.576 205.089 122.669C205.331 122.752 205.671 122.855 206.109 122.976C206.733 123.144 207.245 123.316 207.645 123.493C208.046 123.66 208.385 123.912 208.665 124.247C208.953 124.573 209.098 125.006 209.098 125.546C209.098 126.216 208.912 126.803 208.539 127.306C208.167 127.799 207.641 128.186 206.961 128.465C206.281 128.735 205.489 128.87 204.586 128.87Z" fill="#EE9636"/>
<path d="M247.036 121.956C247.036 122.869 246.789 123.651 246.295 124.303C245.802 124.955 245.117 125.416 244.242 125.686L245.946 128.703H243.558L242.021 125.965H240.094L239.549 128.703H237.272L239.228 118.925H243.208C244.419 118.925 245.359 119.191 246.03 119.721C246.7 120.252 247.036 120.997 247.036 121.956ZM242.37 124.163C243.125 124.163 243.707 123.991 244.116 123.646C244.535 123.302 244.745 122.808 244.745 122.166C244.745 121.7 244.587 121.351 244.27 121.118C243.953 120.885 243.502 120.769 242.915 120.769H241.127L240.443 124.163H242.37Z" fill="#EE9636"/>
<path d="M257.81 120.741L257.391 122.864H261.93L261.581 124.624H257.027L256.58 126.887H261.916L261.539 128.703H253.969L255.924 118.925H263.313L262.936 120.741H257.81Z" fill="#EE9636"/>
<path d="M273.62 120.741L273.103 123.325H277.642L277.265 125.141H272.754L272.041 128.703H269.765L271.72 118.925H279.109L278.732 120.741H273.62Z" fill="#EE9636"/>
<path d="M288.952 120.741L288.533 122.864H293.072L292.723 124.624H288.17L287.723 126.887H293.058L292.681 128.703H285.111L287.066 118.925H294.455L294.078 120.741H288.952Z" fill="#EE9636"/>
<path d="M310.67 121.956C310.67 122.869 310.423 123.651 309.93 124.303C309.436 124.955 308.752 125.416 307.877 125.686L309.581 128.703H307.192L305.656 125.965H303.728L303.183 128.703H300.907L302.862 118.925H306.843C308.053 118.925 308.994 119.191 309.664 119.721C310.335 120.252 310.67 120.997 310.67 121.956ZM306.005 124.163C306.759 124.163 307.341 123.991 307.751 123.646C308.17 123.302 308.379 122.808 308.379 122.166C308.379 121.7 308.221 121.351 307.905 121.118C307.588 120.885 307.136 120.769 306.55 120.769H304.762L304.077 124.163H306.005Z" fill="#EE9636"/>
<path d="M321.444 120.741L321.025 122.864H325.565L325.215 124.624H320.662L320.215 126.887H325.551L325.174 128.703H317.603L319.559 118.925H326.947L326.57 120.741H321.444Z" fill="#EE9636"/>
<path d="M344.322 118.925L342.366 128.703H340.509L336.863 122.585L335.634 128.703H333.399L335.355 118.925H337.226L340.872 125.057L342.087 118.925H344.322Z" fill="#EE9636"/>
<path d="M354.709 120.769H351.58L351.957 118.925H360.477L360.1 120.769H356.985L355.393 128.703H353.13L354.709 120.769Z" fill="#EE9636"/>
</svg>
