<svg width="106" height="137" viewBox="0 0 106 137" fill="none" xmlns="http://www.w3.org/2000/svg">
<path d="M36.5828 129.071C33.1842 126.881 33.0855 126.387 31.4994 125.004C27.4105 121.006 24.3529 116.075 22.5892 110.635C20.8254 105.195 20.4082 99.4087 21.3734 93.772C23.6914 73.7639 35.1188 59.4492 51.0602 48.3064C62.247 40.8433 74.6245 35.3423 87.6604 32.0397C89.4091 31.5517 93.2085 30.7177 92.7031 32.243C91.7445 35.1362 91.7445 34.8827 91.0357 36.3097C89.1281 40.1508 86.4032 43.528 83.0522 46.2046C79.7013 48.8811 75.8053 50.7922 71.6376 51.8038C55.9903 55.7793 42.51 65.6998 34.0615 79.4573C28.6484 87.898 26.4007 97.9836 27.7174 107.924C27.9866 111.672 29.2164 115.287 31.2883 118.421C33.3601 121.555 36.2043 124.103 39.5467 125.82C42.8891 127.536 46.6171 128.362 50.3716 128.219C54.1261 128.077 57.7806 126.969 60.9829 125.004C61.975 124.388 63.0597 123.934 64.1956 123.662C62.4898 126.45 60.2501 128.872 57.6051 130.792C54.9601 132.711 51.9619 134.089 48.7829 134.846C21.7801 141.637 7.30266 124.354 2.4633 104.549C-4.45007 76.0819 3.5613 50.9091 21.8207 28.7457C31.6341 17.1708 43.7171 7.73135 57.3229 1.01087C58.2986 0.462785 59.3798 0.128568 60.4947 0.0304069C61.6095 -0.0677538 62.7324 0.0723912 63.7889 0.441537C69.1976 2.14955 74.647 3.77622 80.0557 5.44356C79.0564 6.83203 78.6324 6.90757 77.697 7.19224C53.9476 14.8376 33.3295 26.875 19.3807 48.1438C13.4539 56.5459 9.38402 66.1137 7.44174 76.2108C5.49945 86.3078 5.7293 96.7027 8.11599 106.704C9.55292 114.015 13.2791 120.678 18.7552 125.73C24.2312 130.782 31.173 132.985 38.5755 133.829C41.3826 133.952 43.2551 133.829 46.3602 133.225C48.542 132.8 49.1916 132.81 50.3716 132.249C51.5516 131.687 52.6954 130.985 53.4596 129.925C47.8282 130.651 42.1121 130.362 36.5828 129.071Z" fill="black"/>
<path d="M36.5828 129.071C42.225 130.434 47.9238 130.553 53.6803 129.809C52.9161 130.869 51.9323 131.687 50.7523 132.249C49.5722 132.81 48.8002 133.131 47.3362 133.225C23.3021 134.77 13.0774 117.399 11.166 100.36C7.70936 70.3478 21.3328 48.0624 44.3502 30.535C57.8504 20.6577 73.1814 13.5659 89.4498 9.67285C94.8585 8.29018 100.529 10.736 104.863 13.0075C105.409 13.2937 105.798 13.7396 105.676 14.5122C103.717 18.6765 100.283 21.9659 96.0378 23.7436C76.7617 27.0783 58.4616 33.0156 43.1709 45.5004C25.4808 59.7338 15.1921 78.0339 16.9814 101.255C17.9167 113.048 22.2274 123.377 34.1428 128.542C34.9288 128.827 35.7494 129.005 36.5828 129.071Z" fill="#EE9636"/>
<path d="M58.3573 68H77.9409C82.7087 68 86.8081 68.7986 90.2391 70.3957C93.7147 71.9485 96.3659 74.1889 98.1928 77.117C100.064 80.0451 101 83.4834 101 87.4319C101 92.8444 99.7746 97.6137 97.3239 101.74C94.8732 105.821 91.4422 108.993 87.0309 111.256C82.6641 113.474 77.6067 114.583 71.8586 114.583H49L58.3573 68ZM72.1928 105.732C75.8466 105.732 79.0103 104.978 81.6838 103.47C84.4019 101.917 86.4739 99.8098 87.8997 97.1479C89.3256 94.4416 90.0386 91.4026 90.0386 88.0308C90.0386 84.526 88.9023 81.7976 86.6298 79.8455C84.3573 77.8491 81.06 76.8508 76.7378 76.8508H67.4473L61.6324 105.732H72.1928Z" fill="#EE9636"/>
</svg>
