<svg width="40" height="40" viewBox="0 0 40 40" fill="#EE9636" xmlns="http://www.w3.org/2000/svg">
<path d="M11.6761 0C13.8761 0 16.0086 0.6175 17.8461 1.755C20.5905 1.46289 23.3656 1.78662 25.9691 2.70261C28.5726 3.61861 30.9391 5.1038 32.896 7.05C34.6116 8.76044 35.9731 10.7923 36.9027 13.0294C37.8323 15.2665 38.3117 17.6649 38.3135 20.0875C38.3135 20.9475 38.2535 21.805 38.1335 22.6525C39.1141 24.3933 39.6306 26.357 39.6335 28.355C39.6335 29.8856 39.331 31.4012 38.7432 32.8144C38.1554 34.2277 37.294 35.5108 36.2085 36.59C34.0159 38.7764 31.045 40.0029 27.9486 40C25.8486 40 23.8036 39.435 22.0236 38.39C19.2435 38.7219 16.4243 38.4205 13.7773 37.5082C11.1302 36.596 8.72391 35.0967 6.73855 33.1225C5.02351 31.4122 3.66232 29.3807 2.73275 27.1441C1.80319 24.9075 1.32349 22.5096 1.32105 20.0875C1.32105 19.18 1.38605 18.2775 1.52105 17.385C0.259786 15.17 -0.237527 12.6016 0.105853 10.0759C0.449233 7.55028 1.61422 5.20782 3.42105 3.41C5.61292 1.22705 8.58009 0.000995433 11.6736 0L11.6761 0ZM12.7936 17.525C13.2436 18.2975 13.8686 18.955 14.6161 19.4475C15.6063 20.0955 16.659 20.6424 17.7586 21.08C18.9886 21.5925 19.9411 22.03 20.6211 22.3875C21.1936 22.6675 21.7136 23.0475 22.1586 23.5075C22.4961 23.8625 22.6836 24.335 22.6836 24.8275C22.6976 25.1736 22.629 25.5182 22.4833 25.8325C22.3377 26.1468 22.1192 26.4219 21.8461 26.635C21.1186 27.125 20.2461 27.3575 19.3711 27.295C18.4716 27.3052 17.5797 27.1299 16.7511 26.78C16.3024 26.5806 15.8589 26.3697 15.4211 26.1475C14.9688 25.9072 14.4656 25.7786 13.9536 25.7725C13.4951 25.7535 13.0469 25.9109 12.7011 26.2125C12.5358 26.3696 12.4066 26.5607 12.3224 26.7727C12.2382 26.9846 12.2011 27.2123 12.2136 27.44C12.2031 27.8711 12.3329 28.294 12.5836 28.645C12.8859 29.0284 13.2772 29.3322 13.7236 29.53C15.4662 30.2857 17.3553 30.6435 19.2536 30.5775C20.6359 30.605 22.0117 30.3805 23.3136 29.915C24.3932 29.5319 25.3336 28.8345 26.0136 27.9125C26.6811 26.9375 27.0185 25.775 26.9785 24.595C27.0046 23.6307 26.7632 22.678 26.281 21.8425C25.7916 21.0482 25.1325 20.3721 24.3511 19.8625C23.3606 19.2235 22.3097 18.6834 21.2136 18.25C21.0965 18.1927 20.9753 18.1443 20.8511 18.105C19.9957 17.7583 19.1512 17.3856 18.3186 16.9875C17.8132 16.7502 17.3556 16.4223 16.9686 16.02C16.6432 15.6777 16.4639 15.2222 16.4686 14.75C16.4525 14.3902 16.5334 14.0326 16.7027 13.7147C16.872 13.3967 17.1235 13.1301 17.4311 12.9425C18.1611 12.5072 19.0017 12.2928 19.8511 12.325C20.5011 12.3175 21.1511 12.4 21.7811 12.565C22.4661 12.7625 23.1361 13.0075 23.7861 13.2975C24.0486 13.42 24.3361 13.485 24.6261 13.4875C24.8376 13.4927 25.048 13.4531 25.2431 13.3712C25.4383 13.2893 25.614 13.1671 25.7586 13.0125C26.0669 12.6751 26.2288 12.2291 26.2086 11.7725C26.216 11.3374 26.065 10.9144 25.7836 10.5825C25.3989 10.1791 24.9218 9.87535 24.3936 9.6975C23.8202 9.48677 23.2272 9.33352 22.6236 9.24C21.7791 9.10179 20.9242 9.03655 20.0686 9.045C18.7609 9.03669 17.4617 9.25491 16.2286 9.69C15.0942 10.0726 14.0815 10.7488 13.2936 11.65C12.5355 12.5476 12.135 13.6931 12.1686 14.8675C12.1436 15.7925 12.3586 16.7075 12.7936 17.525V17.525Z"/>
</svg>
