<svg width="48" height="40" viewBox="0 0 48 40" fill="#EE9636" xmlns="http://www.w3.org/2000/svg">
<path d="M43.9099 0.353161C43.9099 0.353161 48.3498 -1.37826 47.9784 2.82629C47.8561 4.55771 46.7464 10.6183 45.8824 17.1725L42.9224 36.5896C42.9224 36.5896 42.6756 39.4341 40.455 39.929C38.2356 40.4227 34.9053 38.1976 34.2882 37.7027C33.7945 37.3313 25.0379 31.7656 21.9545 29.0456C21.0905 28.3028 20.1031 26.8193 22.078 25.0879L35.0276 12.72C36.5076 11.2365 37.9876 7.7737 31.8208 11.9783L14.5523 23.7268C14.5523 23.7268 12.5786 24.9645 8.87916 23.8513L0.860904 21.3771C0.860904 21.3771 -2.09908 19.5222 2.95804 17.6674C15.2928 11.8548 30.4642 5.91885 43.9076 0.353161H43.9099Z"/>
</svg>
