<svg width="38" height="40" viewBox="0 0 38 40" fill="#EE9636" xmlns="http://www.w3.org/2000/svg">
<path d="M17.9851 0.00582117C14.7747 0.0445759 7.87258 0.572141 4.01211 4.11383C1.1405 6.95918 0.13788 11.1659 0.0203655 16.3678C-0.0771466 21.551 -0.194661 31.2847 9.18775 33.935V37.9718C9.18775 37.9718 9.12899 39.587 10.1966 39.9182C11.5118 40.3345 12.2606 39.0919 13.5108 37.7567L15.8423 35.1202C22.2619 35.654 27.1787 34.4238 27.745 34.2413C29.0477 33.825 36.3848 32.8874 37.5837 23.1524C38.8139 13.0987 36.9849 6.76415 33.6833 3.8988H33.6633C32.6669 2.98119 28.6626 0.0633283 19.7165 0.0308243C19.7165 0.0308243 19.0527 -0.0141813 17.9851 0.00457102V0.00582117ZM18.0951 2.83242C19.0065 2.82617 19.5603 2.86492 19.5603 2.86492C27.1325 2.88493 30.7467 5.16396 31.5993 5.93155C34.3796 8.31435 35.8123 14.0251 34.7634 22.4186C33.767 30.5571 27.8163 31.0722 26.7149 31.4234C26.2461 31.5735 21.9156 32.6411 16.4599 32.2898C16.4599 32.2898 12.3969 37.1929 11.1267 38.4556C10.9255 38.6768 10.6904 38.7418 10.5404 38.7093C10.3254 38.6568 10.2604 38.3906 10.2729 38.0255L10.3116 31.3259C2.3544 29.1257 2.82321 20.8234 2.90822 16.4866C3.00573 12.1498 3.81958 8.60188 6.24238 6.19908C9.50403 3.24997 15.3648 2.85242 18.0926 2.83242H18.0951ZM18.6952 7.16795C18.6297 7.16729 18.5647 7.1796 18.504 7.20417C18.4433 7.22874 18.388 7.26508 18.3414 7.3111C18.2948 7.35712 18.2578 7.41191 18.2325 7.47231C18.2071 7.53271 18.194 7.59752 18.1939 7.66302C18.1939 7.94305 18.4214 8.16433 18.6952 8.16433C19.9347 8.14075 21.1666 8.36281 22.3199 8.81769C23.4732 9.27257 24.525 9.95127 25.4147 10.8147C27.2312 12.5786 28.1163 14.9489 28.1501 18.048C28.1501 18.3218 28.3714 18.5494 28.6514 18.5494V18.5294C28.7834 18.5297 28.9101 18.4778 29.004 18.3851C29.0979 18.2924 29.1514 18.1663 29.1527 18.0343C29.2134 16.5756 28.9768 15.1197 28.4574 13.7552C27.938 12.3907 27.1465 11.1461 26.1311 10.0971C24.1521 8.16308 21.6443 7.1667 18.6952 7.1667V7.16795ZM12.1056 8.31435C11.7517 8.26264 11.3909 8.33367 11.083 8.51562H11.0567C10.342 8.9346 9.69808 9.46414 9.14899 10.0846C8.69268 10.6121 8.44515 11.1459 8.38015 11.6598C8.34139 11.966 8.36764 12.2723 8.45891 12.5649L8.49141 12.5849C9.00522 14.0951 9.67656 15.5477 10.4967 16.9154C11.5531 18.8368 12.8531 20.6138 14.3646 22.2023L14.4096 22.2673L14.4809 22.3198L14.5259 22.3723L14.5784 22.4173C16.1726 23.9333 17.9539 25.2394 19.8791 26.3041C22.0793 27.5017 23.4145 28.068 24.2158 28.3031V28.3156C24.4509 28.3868 24.6647 28.4193 24.8797 28.4193C25.5626 28.3693 26.2092 28.092 26.7162 27.6317C27.3338 27.0825 27.8574 26.436 28.2663 25.7177V25.7052C28.6501 24.9827 28.5201 24.2988 27.9663 23.8363C26.8572 22.8668 25.6578 22.0056 24.3846 21.2647C23.532 20.8021 22.6657 21.0822 22.3144 21.551L21.5655 22.4948C21.1817 22.9637 20.4841 22.8986 20.4841 22.8986L20.4641 22.9111C15.2622 21.5822 13.8746 16.3153 13.8746 16.3153C13.8746 16.3153 13.8096 15.599 14.2909 15.2339L15.2285 14.4789C15.6773 14.1138 15.9898 13.2487 15.5085 12.3948C14.7727 11.1199 13.9135 9.92023 12.9432 8.81316C12.7311 8.55216 12.4335 8.37459 12.1031 8.31185L12.1056 8.31435ZM19.5603 9.79953C18.8964 9.79953 18.8964 10.8022 19.5665 10.8022C20.392 10.8155 21.2067 10.9915 21.9641 11.3199C22.7216 11.6483 23.4068 12.1228 23.9808 12.7161C24.5044 13.2937 24.9068 13.9705 25.164 14.7064C25.4213 15.4424 25.5282 16.2224 25.4785 17.0004C25.4808 17.1321 25.5345 17.2576 25.6282 17.3501C25.7219 17.4427 25.8481 17.4948 25.9798 17.4955L25.9998 17.5217C26.1325 17.5207 26.2594 17.4676 26.3532 17.3738C26.447 17.28 26.5001 17.1531 26.5011 17.0204C26.5461 15.0339 25.9286 13.3675 24.7172 12.0323C23.4995 10.6971 21.8006 9.9483 19.6315 9.79953H19.5603V9.79953ZM20.3816 12.4949C19.6978 12.4749 19.6715 13.4975 20.3491 13.5175C21.9968 13.6025 22.7969 14.4351 22.9019 16.1478C22.9042 16.2778 22.9573 16.4018 23.0498 16.4931C23.1424 16.5845 23.267 16.636 23.397 16.6366H23.417C23.4838 16.6338 23.5495 16.6176 23.61 16.5891C23.6705 16.5606 23.7248 16.5203 23.7696 16.4706C23.8144 16.421 23.8489 16.3628 23.871 16.2997C23.8931 16.2365 23.9024 16.1696 23.8983 16.1028C23.7808 13.87 22.5631 12.6124 20.4016 12.4961H20.3816V12.4949Z"/>
</svg>
